<svg xmlns="http://www.w3.org/2000/svg" viewBox="0 0 840.25 326.94"><defs><style>.cls-1{fill:#e1e1e1;}.cls-2{fill:#7e35e4;}.cls-3{fill:#f1f0f1;}</style></defs><g id="Capa_2" data-name="Capa 2"><g id="Capa_1-2" data-name="Capa 1"><path class="cls-1" d="M269.23,52.7V30.9h12.49c4.87,0,8-3.17,8-8.46V0h25.82V30.69h30.7v22h-30.7v51.22c0,9.53,5.08,15.25,15.24,15.25h14.82V142H325.11c-23.49,0-37-13.34-37-37V52.7Z"/><path class="cls-1" d="M418.65,27.94c35.78,0,55.25,26.46,55.25,57.78V94.4H389.23c.85,16.93,12.7,28.36,30.27,28.36,13.34,0,23.71-6.14,27.73-15.45h25.61c-5.72,22.86-25.61,37.47-54.19,37.47-16.3,0-29.84-5.51-40.43-16.3-10.37-11-15.66-24.76-15.66-41.49C362.56,52.28,386.27,27.94,418.65,27.94Zm29,47c-1.48-15-12.91-25-29-25-15.24,0-27.3,10.8-29,25Z"/><path class="cls-1" d="M579.71,40a49.06,49.06,0,0,1,18.42,31.75H570c-3.39-11.22-14-18.83-26.67-18.83-18.42,0-30.48,14.18-30.48,33.44,0,19.47,12.7,33.44,30.69,33.44,12.7,0,23.07-7.2,26.24-18h28.15a47.56,47.56,0,0,1-18.41,31.11c-10,7.84-22.22,11.86-36.41,11.86-34.71,0-58.2-26-58.2-58.42,0-32.81,23.49-58.42,58.2-58.42C557.28,27.94,569.55,32,579.71,40Z"/><path class="cls-1" d="M609.75,142V30.69H636V44.24h1.48c5.08-9.1,16.3-16.3,31.33-16.3,12.28,0,22,3.81,29.21,11.64,7.41,7.62,11,17.57,11,29.63V142H681.51V76.41c0-13.55-8.68-22.65-21.38-22.65-13.34,0-22.86,10.37-22.86,24.55V142Z"/><path class="cls-1" d="M781,27.94c34.29-.42,59.9,26,59.27,58.42,0,32.59-24.76,58.42-59.27,58.42-17.35,0-31.54-5.51-42.75-16.51q-16.51-16.83-16.51-41.91C721.71,53.34,745.84,27.94,781,27.94Zm-22.65,82.55a29.89,29.89,0,0,0,22.44,9.31c9.1,0,16.72-3.18,22.65-9.31q8.9-9.52,8.89-24.13c0-9.74-3-17.78-8.89-23.92-5.93-6.35-13.34-9.52-22.44-9.52s-16.72,3.17-22.65,9.52c-5.71,6.14-8.67,14.18-8.67,23.92S752.61,104.14,758.32,110.49Z"/><path class="cls-2" d="M294.63,244.81c.85,9.31,8.68,14.61,21.17,14.61s19.89-5.51,19.89-13.34c0-23.71-63.92-1.27-63.92-47.84,0-9.73,4-17.78,11.85-24.34s18.63-9.73,32-9.73c24.76,0,42.12,12.7,43.81,34.5H335.06c-1.06-8.47-7.83-13.34-19.69-13.34-11,0-18.41,4.66-18.41,12.07,0,21.16,65.4-1.27,65.4,47.2,0,21.38-17.56,36.4-47,36.4s-45.08-13.54-46.14-36.19Z"/><path class="cls-2" d="M380.13,166.92h27.52v65.82c0,13.55,8.89,22.86,21.59,22.86,13.33,0,22.86-10.58,22.86-24.76V166.92h27.51V278.25H453.37V264.71h-1.7c-4.86,9.1-16.5,16.29-31.11,16.29-12.28,0-22-3.8-29.42-11.64s-11-17.57-11-29.63Z"/><path class="cls-2" d="M500.34,326.94v-160h27.09V181.1h1.49c3.17-4.87,12.91-16.93,33.44-16.93,15.66,0,28.36,5.29,37.88,16.08q14.61,15.88,14.61,41.91c0,17.36-4.87,31.54-14.39,42.55-9.53,10.79-22,16.29-37.26,16.29-19.47,0-30.48-10.79-33.86-17.14h-1.48v63.08ZM557.07,256c17.78,0,29.84-13.76,29.84-33.44,0-20.32-12.06-33.45-30.06-33.45-17.77,0-29.63,14-29.63,33.45C527.22,242.9,539.5,256,557.07,256Z"/><path class="cls-2" d="M679.81,164.17c35.78,0,55.25,26.45,55.25,57.78v8.68H650.39c.85,16.93,12.7,28.36,30.27,28.36,13.33,0,23.71-6.13,27.73-15.45H734C728.29,266.4,708.39,281,679.81,281c-16.3,0-29.84-5.5-40.42-16.29-10.38-11-15.67-24.77-15.67-41.49C623.72,188.51,647.43,164.17,679.81,164.17Zm29,47c-1.48-15-12.91-25-29-25-15.24,0-27.3,10.79-29,25Z"/><path class="cls-2" d="M750.92,278.25V166.92h26v18.2h1.7a31.35,31.35,0,0,1,29.21-18.63H818v26.25H806.59c-17.57,0-28.16,12.7-28.16,32.81v52.7Z"/><path class="cls-2" d="M134.6,33.34a5.4,5.4,0,0,0-5.4-5.4H5.4A5.4,5.4,0,0,0,0,33.34v123.8a5.4,5.4,0,0,0,5.4,5.4H39a5.4,5.4,0,0,0,5.4-5.4V77.72a5.4,5.4,0,0,1,5.4-5.4H129.2a5.4,5.4,0,0,0,5.4-5.4Z"/><path class="cls-3" d="M44.41,275.58a5.4,5.4,0,0,0,5.4,5.4h123.8a5.4,5.4,0,0,0,5.4-5.4V151.78a5.4,5.4,0,0,0-5.4-5.4H140a5.4,5.4,0,0,0-5.4,5.4v79.41a5.41,5.41,0,0,1-5.4,5.41H49.81a5.4,5.4,0,0,0-5.4,5.4Z"/></g></g></svg>